<?xml version="1.0" encoding="UTF-8" standalone="no"?>
<svg
   version="1.1"
   id="Layer_1"
   x="0px"
   y="0px"
   width="58.24057"
   viewBox="0 0 58.24057 30"
   enable-background="new 0 0 500 500"
   xml:space="preserve"
   sodipodi:docname="cpd_truck.svg"
   height="30"
   inkscape:version="1.2.1 (9c6d41e, 2022-07-14)"
   xmlns:inkscape="http://www.inkscape.org/namespaces/inkscape"
   xmlns:sodipodi="http://sodipodi.sourceforge.net/DTD/sodipodi-0.dtd"
   xmlns="http://www.w3.org/2000/svg"
   xmlns:svg="http://www.w3.org/2000/svg"><defs
   id="defs155" /><sodipodi:namedview
   id="namedview153"
   pagecolor="#505050"
   bordercolor="#eeeeee"
   borderopacity="1"
   inkscape:showpageshadow="0"
   inkscape:pageopacity="0"
   inkscape:pagecheckerboard="0"
   inkscape:deskcolor="#505050"
   showgrid="false"
   inkscape:zoom="2.106"
   inkscape:cx="138.88889"
   inkscape:cy="111.82336"
   inkscape:window-width="3840"
   inkscape:window-height="2107"
   inkscape:window-x="1080"
   inkscape:window-y="25"
   inkscape:window-maximized="0"
   inkscape:current-layer="Layer_1" />

<path
   fill="#d25b73"
   opacity="1"
   stroke="none"
   d="m 37.25691,21.336216 c -12.123368,-10e-6 -24.18,5.2e-5 -36.2366323,-1.34e-4 C 0.01623358,21.336061 3.2488736e-4,21.320763 2.7136633e-4,20.337178 -7.5652684e-5,13.886212 -1.6908105e-4,7.4352445 4.715697e-4,0.98427892 5.6125999e-4,0.07914352 0.07895209,5.3034025e-4 0.99344047,4.8496418e-4 14.117822,-1.8238034e-4 27.242202,-1.8238034e-4 40.366582,6.1843025e-4 c 0.885083,5.739e-5 1.008174,0.12102959975 1.008337,0.99289515975 0.0012,6.47321091 0.0014,12.94642241 -6.5e-5,19.41963341 -1.34e-4,0.828516 -0.0951,0.921172 -0.914719,0.922602 -1.045493,0.0019 -2.090996,4e-4 -3.203225,4e-4 z"
   id="path134"
   style="stroke-width:0.133469" />
<path
   fill="#d25c73"
   opacity="1"
   stroke="none"
   d="m 54.87483,25.624054 c -0.80015,-1.29e-4 -1.534135,-0.01764 -2.266805,0.0059 -0.46726,0.01503 -0.6878,-0.174315 -0.75499,-0.633953 -0.36647,-2.507206 -1.68956,-3.652828 -4.210642,-3.659068 -1.5113,-0.0038 -3.022817,-0.01472 -4.533833,0.0064 -0.580697,0.0081 -0.786357,-0.238467 -0.785265,-0.798495 0.0094,-4.82284 0.01001,-9.645716 -4.01e-4,-14.4685533 -0.0012,-0.5762704 0.236221,-0.785559 0.801028,-0.7816714 2.333532,0.016065 4.668239,-0.035875 7.000603,0.018785 2.412915,0.056552 4.18592,1.3430765 5.565235,3.2064942 1.62969,2.2016645 2.5006,4.6939205 2.532885,7.4401285 0.0345,2.933319 0.009,5.86735 0.0067,8.801071 -5e-4,0.802088 -0.06225,0.859659 -0.887525,0.862811 -0.800095,0.0031 -1.600205,4e-4 -2.467035,1.33e-4 M 51.47132,15.943959 c -1.666786,-1.6e-5 -3.333579,-0.0017 -5.00036,0.0011 -0.488537,8.25e-4 -0.985102,-0.03382 -1.461722,0.04552 -0.196566,0.03272 -0.483396,0.321159 -0.485711,0.496509 -0.0023,0.172376 0.287417,0.371727 0.482384,0.513252 0.08935,0.06486 0.258681,0.02356 0.391743,0.02359 3.289123,8.25e-4 6.578251,-0.001 9.867371,0.0025 0.427625,4e-4 0.882285,-0.0376 0.86824,-0.571976 -0.0131,-0.497877 -0.47189,-0.509286 -0.86154,-0.509783 -1.22231,-0.0016 -2.44462,-5.5e-4 -3.800405,-6.49e-4 z"
   id="path136"
   style="stroke-width:0.133469" />
<path
   fill="#d25d74"
   opacity="1"
   stroke="none"
   d="m 24.002514,29.397916 c -1.505704,-1.078039 -2.098991,-2.645991 -1.64447,-4.265466 0.452924,-1.613777 1.83624,-2.691804 3.578042,-2.788395 1.5148,-0.084 2.998051,0.871194 3.62929,2.337222 0.647021,1.502673 0.249949,3.21926 -1.009807,4.365468 -1.219111,1.109229 -2.957191,1.254941 -4.553055,0.351171 z"
   id="path138"
   style="stroke-width:0.133469" />
<path
   fill="#d25c74"
   opacity="1"
   stroke="none"
   d="m 13.708702,23.684772 c 1.527489,-1.586939 3.728052,-1.776533 5.302548,-0.490676 1.545177,1.261914 1.883914,3.456873 0.785224,5.088161 -1.227868,1.823088 -3.6604,2.260201 -5.444608,0.978366 -1.761665,-1.265638 -2.062209,-3.734376 -0.643164,-5.575851 z"
   id="path140"
   style="stroke-width:0.133469" />
<path
   fill="#d25d74"
   opacity="1"
   stroke="none"
   d="m 49.977178,23.567311 c 1.574362,1.930965 1.284447,4.417617 -0.633126,5.751794 -1.828928,1.272512 -4.334182,0.706348 -5.483413,-1.239191 -0.952934,-1.613226 -0.543485,-3.72902 0.950535,-4.911756 1.540756,-1.219736 3.611271,-1.072602 5.166004,0.399153 z"
   id="path142"
   style="stroke-width:0.133469" />
<path
   fill="#d6697f"
   opacity="1"
   stroke="none"
   d="m 12.035124,23.531271 c -3.8066941,0.02429 -7.5605202,0.02944 -11.31434585,0.03556 -0.39904479,6.5e-4 -0.72537159,-0.103189 -0.71616277,-0.580721 0.00917732,-0.475832 0.35249738,-0.568142 0.73976462,-0.56833 3.6430422,-0.0017 7.2861302,-0.0081 10.929027,0.01498 0.240731,0.0015 0.595047,0.180522 0.684158,0.374523 0.07349,0.159997 -0.167784,0.46459 -0.322441,0.723985 z"
   id="path144"
   style="stroke-width:0.133469" />
<path
   fill="#d25c74"
   opacity="1"
   stroke="none"
   d="m 0.85386974,25.625517 c -0.46446004,0.01068 -0.86942551,-0.01097 -0.84156215,-0.558274 0.02679775,-0.526385 0.43668423,-0.529024 0.8314037,-0.528833 3.39798791,0.0017 6.79597991,0.0032 10.19395871,-0.0022 0.412988,-6.5e-4 0.811748,0.05493 0.818142,0.552102 0.0067,0.516467 -0.406854,0.539073 -0.81217,0.538532 -3.3757711,-0.0045 -6.7515508,-0.0018 -10.18977226,-0.0013 z"
   id="path146"
   style="stroke-width:0.133469" />
<path
   fill="#d25c74"
   opacity="1"
   stroke="none"
   d="m 33.386524,25.623921 c -0.643876,-1.2e-5 -1.22118,-0.0065 -1.798251,0.0022 -0.398114,0.0061 -0.827533,-0.0024 -0.829414,-0.51964 -0.002,-0.544185 0.434306,-0.572221 0.86433,-0.570433 1.79818,0.0075 3.596409,0.0032 5.394619,0.0032 1.487406,9e-6 2.974819,0.0013 4.462227,-8.25e-4 0.418182,-5.49e-4 0.857006,0.0017 0.854505,0.573491 -0.0025,0.55452 -0.43933,0.512749 -0.822702,0.512664 -2.686216,-5.51e-4 -5.372429,-5.51e-4 -8.125314,-6.5e-4 z"
   id="path148"
   style="stroke-width:0.133469" />

</svg>
