<?xml version="1.0" encoding="UTF-8" standalone="no"?>
<svg
   version="1.1"
   id="Layer_1"
   x="0px"
   y="0px"
   width="58.271938"
   viewBox="0 0 58.271938 30"
   enable-background="new 0 0 500 500"
   xml:space="preserve"
   sodipodi:docname="mm_truck.svg"
   height="30"
   inkscape:version="1.2.1 (9c6d41e, 2022-07-14)"
   xmlns:inkscape="http://www.inkscape.org/namespaces/inkscape"
   xmlns:sodipodi="http://sodipodi.sourceforge.net/DTD/sodipodi-0.dtd"
   xmlns="http://www.w3.org/2000/svg"
   xmlns:svg="http://www.w3.org/2000/svg"><defs
   id="defs297" /><sodipodi:namedview
   id="namedview295"
   pagecolor="#505050"
   bordercolor="#eeeeee"
   borderopacity="1"
   inkscape:showpageshadow="0"
   inkscape:pageopacity="0"
   inkscape:pagecheckerboard="0"
   inkscape:deskcolor="#505050"
   showgrid="false"
   inkscape:zoom="2.106"
   inkscape:cx="140.07597"
   inkscape:cy="113.96011"
   inkscape:window-width="2681"
   inkscape:window-height="1532"
   inkscape:window-x="1684"
   inkscape:window-y="299"
   inkscape:window-maximized="0"
   inkscape:current-layer="Layer_1" />

<path
   fill="#016747"
   opacity="1"
   stroke="none"
   d="M 37.271281,21.339762 C 25.126567,21.339746 13.048608,21.339806 0.97064618,21.339628 0.01930413,21.339608 3.2318662e-4,21.320842 2.6657888e-4,20.362407 -1.0724546e-4,13.911931 -9.3894576e-5,7.4614527 3.4454804e-4,1.0109746 4.0916632e-4,0.05381102 0.05484739,2.6997114e-4 1.0289973,2.4727464e-4 14.13014,-1.9742904e-5 27.23128,-1.5325174e-4 40.332422,2.8198693e-4 41.306347,3.1269397e-4 41.38811,0.083717 41.388175,1.0704648 c 4.01e-4,6.4282342 5.34e-4,12.8564692 -7.3e-5,19.2847042 -8.5e-5,0.926518 -0.05899,0.984085 -0.980545,0.98454 -1.023176,5.34e-4 -2.046346,1.15e-4 -3.136276,1.15e-4 z"
   id="path276"
   style="stroke-width:0.133509" />
<path
   fill="#016748"
   opacity="1"
   stroke="none"
   d="m 54.894475,25.631499 c -0.800828,-7.7e-5 -1.535441,-0.01695 -2.26881,0.0059 -0.466592,0.01454 -0.681475,-0.164503 -0.742244,-0.635597 -0.313527,-2.430665 -1.701912,-3.649377 -4.151783,-3.660672 -1.534875,-0.0071 -3.07004,-0.01644 -4.604609,0.0064 -0.579526,0.0086 -0.789436,-0.2262 -0.788259,-0.791237 0.01007,-4.827159 0.01079,-9.654362 -5.34e-4,-14.4815151 -0.0013,-0.5749612 0.22423,-0.7892148 0.794045,-0.785036 2.313361,0.016968 4.627075,-0.00923 6.940367,0.012123 1.964529,0.018124 3.567727,0.8973142 4.861265,2.2995175 2.167167,2.3492228 3.243574,5.1784946 3.307704,8.3576886 0.0592,2.935153 0.01384,5.872445 0.01174,8.808792 -5.34e-4,0.800979 -0.06411,0.860584 -0.889641,0.863643 -0.800805,0.003 -1.601626,2.67e-4 -2.469185,-4e-5 M 51.49005,15.970451 c -2.06618,-2e-5 -4.132373,0.0036 -6.198529,-0.0033 -0.389017,-0.0013 -0.768645,0.05123 -0.77437,0.514829 -0.0057,0.465224 0.374345,0.531269 0.762681,0.530918 3.376986,-0.003 6.753967,-0.003 10.130952,-8.9e-5 0.395153,4e-4 0.751889,-0.08599 0.738826,-0.55384 -0.01208,-0.432813 -0.362762,-0.492298 -0.726949,-0.490701 -1.266346,0.0056 -2.532728,0.0022 -3.932611,0.0021 z"
   id="path278"
   style="stroke-width:0.133509" />
<path
   fill="#036949"
   opacity="1"
   stroke="none"
   d="m 24.012274,29.403588 c -1.500866,-1.069407 -2.099057,-2.649308 -1.644637,-4.265646 0.447826,-1.59289 1.793324,-2.656661 3.511406,-2.776174 1.560018,-0.108522 3.044456,0.825152 3.694582,2.32379 0.644337,1.485298 0.240221,3.2404 -1.005761,4.368042 -1.220754,1.104822 -2.929853,1.247914 -4.55559,0.349988 z"
   id="path280"
   style="stroke-width:0.133509" />
<path
   fill="#026849"
   opacity="1"
   stroke="none"
   d="m 13.71439,23.688597 c 1.268772,-1.305407 2.810628,-1.685146 4.332454,-1.050254 1.522491,0.635174 2.314565,1.821294 2.39387,3.450776 0.07473,1.53556 -0.857494,2.945205 -2.294865,3.589847 -1.549251,0.694814 -3.43927,0.232374 -4.506953,-1.102738 -1.132979,-1.416772 -1.116078,-3.320264 0.07549,-4.887631 z"
   id="path282"
   style="stroke-width:0.133509" />
<path
   fill="#026849"
   opacity="1"
   stroke="none"
   d="m 49.996423,23.570175 c 1.418601,1.76775 1.334914,3.978615 -0.16876,5.378873 -1.495716,1.392842 -3.780714,1.400714 -5.249365,0.01809 -1.528502,-1.438985 -1.615812,-3.857639 -0.194641,-5.391829 1.491108,-1.609686 3.887757,-1.626615 5.612766,-0.0051 z"
   id="path284"
   style="stroke-width:0.133509" />
<path
   fill="#157456"
   opacity="1"
   stroke="none"
   d="m 12.037425,23.525133 c -3.7855893,0.02167 -7.5177332,0.02601 -11.24987617,0.0314 -0.40245571,5.34e-4 -0.79814907,-0.02836 -0.78453451,-0.568769 0.01324675,-0.525818 0.41240012,-0.563802 0.80890374,-0.564011 3.59906454,-0.0019 7.19817944,-0.0091 10.79708794,0.01462 0.264419,0.0017 0.59473,0.176729 0.760637,0.380232 0.07546,0.09256 -0.175743,0.451428 -0.332218,0.706523 z"
   id="path286"
   style="stroke-width:0.133509" />
<path
   fill="#016848"
   opacity="1"
   stroke="none"
   d="m 0.85794777,25.633284 c -0.46721631,0.01359 -0.86728395,-0.0168 -0.8476165,-0.557716 0.01928348,-0.530347 0.4293496,-0.533078 0.82534643,-0.532861 3.4023592,0.0019 6.8047209,0.003 10.2070743,-0.0017 0.409545,-5.34e-4 0.813826,0.04538 0.822381,0.546353 0.0087,0.509956 -0.390972,0.548825 -0.804342,0.548043 -3.380107,-0.0064 -6.7602329,-0.0026 -10.20284323,-0.0021 z"
   id="path288"
   style="stroke-width:0.133509" />
<path
   fill="#016848"
   opacity="1"
   stroke="none"
   d="m 33.399737,25.631491 c -0.666869,-4.1e-5 -1.267307,-0.01091 -1.867128,0.0038 -0.394158,0.0096 -0.759006,-0.05641 -0.764945,-0.520891 -0.0064,-0.499131 0.372417,-0.576321 0.794085,-0.574176 1.667117,0.0085 3.334299,0.0035 5.001456,0.0035 1.622702,4e-6 3.245399,-6.68e-4 4.868102,5.34e-4 0.424173,2.67e-4 0.924559,-0.05722 0.921964,0.567792 -0.0025,0.597465 -0.488525,0.519135 -0.884488,0.519318 -2.667451,0.0012 -5.334907,4.01e-4 -8.069046,2.67e-4 z"
   id="path290"
   style="stroke-width:0.133509" />

</svg>
